# xmcd
#
# Track frame offsets:
#	150
#	18362
#	37463
#	54729
#	73741
#	93101
#	112217
#	130500
#	148083
#	165293
#	182003
#	198283
#	226462
#
# Disc length: 4003 seconds
#
# Revision: 1
# Processed by: cddbd v1.5.2PL0 Copyright (c) Steve Scherf et al.
# Submitted via: audiograbber 1.83.01
#
DISCID=b60fa10d
DTITLE=Karaoke - ASK-98 Most Wanted Country V1
DYEAR=2007
DGENRE=Country
TTITLE0=Jake Owen - Startin' With Me
TTITLE1=James Otto - Just Got Started Lovin' You
TTITLE2=Kenny Chesney - Better As A Memory
TTITLE3=Lady Antebellum - Love Don't Live Here
TTITLE4=Rascal Flatts - Winner At A Losing Game
TTITLE5=Reba McEntire - Every Other Weekend
TTITLE6=Rodney Atkins - Cleaning This Gun
TTITLE7=Rodney Adkins - Watching You
TTITLE8=Steve Holy - Brand New Girlfriend
TTITLE9=Taylor Swift - Teardrops On My Guitar
TTITLE10=Wreckers - Leave The Pieces
TTITLE11=Trace Adkins - You're Gonna Miss This
TTITLE12=Data - Data Track
EXTD=
EXTT0=
EXTT1=
EXTT2=
EXTT3=
EXTT4=
EXTT5=
EXTT6=
EXTT7=
EXTT8=
EXTT9=
EXTT10=
EXTT11=
EXTT12=
PLAYORDER=
